<svg xmlns="http://www.w3.org/2000/svg" viewBox="0 0 24 24" fill="currentColor">
  <path d="M12 2C6.48 2 2 6.48 2 12s4.48 10 10 10 10-4.48 10-10S17.52 2 12 2zm-1 17.93c-3.95-.49-7-3.85-7-7.93 0-.62.08-1.21.21-1.79l4.58 2.65v2.06l-1.07 1.07 1.41 1.41 3.09-3.09h2.06l2.65 4.58c-.58.13-1.17.21-1.79.21v-2.6h-2v1.53zm6.4-1.53c-.58 0-1.13-.1-1.64-.26L13 14.5v-3h3l1.93 3.75c-.33.61-.77 1.14-1.32 1.58L17.4 18.4zM12 4c4.06 0 7.37 3.05 7.93 7h-2.6v2h1.53v1.53c-1.43.13-2.8.65-3.93 1.44L12 10h-2V7h3V5h-2c-.36-.54-.78-1.03-1.24-1.46C11.02 4.2 11.51 4 12 4z"/>
</svg>
