<svg xmlns="http://www.w3.org/2000/svg" viewBox="0 0 24 24" fill="currentColor"><path d="M12 2c1.104 0 2 .896 2 2s-.896 2-2 2-2-.896-2-2 .896-2 2-2zm0 2c.553 0 1-.448 1-1s-.447-1-1-1-1 .448-1 1 .447 1 1 1zm0 16c-1.104 0-2-.896-2-2s.896-2 2-2 2 .896 2 2-.896 2-2 2zm0-2c-.553 0-1 .448-1 1s.447 1 1 1 1-.448 1-1-.447-1-1-1zm-9-9c-1.104 0-2-.896-2-2s.896-2 2-2 2 .896 2 2-.896 2-2 2zm0-2c-.553 0-1 .448-1 1s.447 1 1 1 1-.448 1-1-.447-1-1-1zm18 0c-1.104 0-2-.896-2-2s.896-2 2-2 2 .896 2 2-.896 2-2 2zm0-2c-.553 0-1 .448-1 1s.447 1 1 1 1-.448 1-1-.447-1-1-1z"/></svg>
