<svg
  width="64px"
  height="64px"
  viewBox="0 0 64 64"
  fill="none"
  xmlns="http://www.w3.org/2000/svg"
>
  <g id="SVGRepo_bgCarrier" stroke-width="0"></g>
  <g
    id="SVGRepo_tracerCarrier"
    stroke-linecap="round"
    stroke-linejoin="round"
  ></g>
  <g id="SVGRepo_iconCarrier">
    <path
      d="M62 26H55.328C54.768 23.943 53.964 21.989 52.931 20.173L57.643 15.461C58.422 14.682 58.422 13.416 57.643 12.637L53.246 8.24C52.467 7.461 51.201 7.461 50.422 8.24L45.71 12.952C43.694 11.364 41.343 10.202 38.728 9.611V3C38.728 1.896 37.832 1 36.728 1H27.272C26.168 1 25.272 1.896 25.272 3V9.611C22.657 10.202 20.306 11.364 18.29 12.952L13.578 8.24C12.799 7.461 11.533 7.461 10.754 8.24L6.357 12.637C5.578 13.416 5.578 14.682 6.357 15.461L11.069 20.173C10.036 21.989 9.232 23.943 8.672 26H2C0.896 26 0 26.896 0 28V36C0 37.104 0.896 38 2 38H8.672C9.232 40.057 10.036 42.011 11.069 43.827L6.357 48.539C5.578 49.318 5.578 50.584 6.357 51.363L10.754 55.76C11.533 56.539 12.799 56.539 13.578 55.76L18.29 51.048C20.306 52.636 22.657 53.798 25.272 54.389V61C25.272 62.104 26.168 63 27.272 63H36.728C37.832 63 38.728 62.104 38.728 61V54.389C41.343 53.798 43.694 52.636 45.71 51.048L50.422 55.76C51.201 56.539 52.467 56.539 53.246 55.76L57.643 51.363C58.422 50.584 58.422 49.318 57.643 48.539L52.931 43.827C53.964 42.011 54.768 40.057 55.328 38H62C63.104 38 64 37.104 64 36V28C64 26.896 63.104 26 62 26ZM32 43C25.925 43 21 38.075 21 32C21 25.925 25.925 21 32 21C38.075 21 43 25.925 43 32C43 38.075 38.075 43 32 43Z"
      fill="#F76D57"
    />
  </g>
</svg>
